<svg xmlns="http://www.w3.org/2000/svg" width="256" height="256" viewBox="0 0 256 256"><path d="M870.834,830.668c3.317-1.2,6.427-2.31,9.53-3.442q22.746-8.292,45.49-16.591c3.535-1.289,4.5-.995,6.635,2.034q11.69,16.559,23.373,33.124c.265.376.548.744.778,1.141,1.043,1.8.755,3.721-.693,4.73a3.479,3.479,0,0,1-4.864-1.081c-3.241-4.479-6.407-9.011-9.595-13.528-4.206-5.959-8.447-11.9-12.576-17.907-1.026-1.494-1.872-1.9-3.743-1.219q-53.945,19.775-107.951,39.387c-4.779,1.74-9.557,3.487-14.379,5.1a2.836,2.836,0,0,0-2.317,3.13c.084,6.272.1,12.547-.007,18.819-.033,1.942.637,2.441,2.531,2.432q28.331-.132,56.661-.117,88.711-.016,177.423,0c3.595,0,3.6,0,3.6-3.641,0-4.361-.022-8.722.007-13.082.019-2.766,1.11-4.094,3.247-4.088s3.246,1.356,3.255,4.1q.03,9.524,0,19.049c-.01,3.025-1.136,4.166-4.149,4.294-.85.036-1.7.011-2.554.011q-109.96,0-219.921-.01c-7.427,0-14.855-.131-22.281-.23-3.287-.044-4.125-.921-4.123-4.11q.009-13.2.011-26.394c0-3.391.428-3.98,3.7-5.178,21.161-7.751,42.307-15.547,63.508-23.189,2.335-.842,2.816-1.817,2.353-4.107-2.32-11.463-4.483-22.957-6.7-34.44-.486-2.52.414-4.237,2.448-4.7,2.066-.466,3.661.87,4.177,3.539q3.26,16.887,6.512,33.775C870.357,829.008,870.586,829.72,870.834,830.668Z" transform="translate(-794.209 -637.329)" fill="#fff"/><path d="M795.2,630.921q0-11.933,0-23.866c0-2.8.655-3.616,3.434-4.3q52.534-12.879,105.071-25.745a15.221,15.221,0,0,1,1.8-.433c1.505-.179,1.917-.9,1.537-2.352q-4.41-16.865-8.734-33.752c-.283-1.1-.662-1.689-2.026-1.564-13.6,1.243-23.025-4.9-29.22-16.446a42.2,42.2,0,0,1-5.1-19.571,86.82,86.82,0,0,1,7.1-36.829,23.611,23.611,0,0,1,3.889-5.91c1.836-2.09,4.365-3.036,7.109-1.835,2.685,1.175,4.458,3.121,4.61,6.295.424,8.862,3.839,12.641,12.979,14.652,2.935.646,5.9,1.216,8.77,2.084a23.45,23.45,0,0,1,16.192,15.5,35.378,35.378,0,0,1,.366,22.989c-2.7,8.109-8.4,13.422-16.282,16.5-1.913.747-2.161,1.565-1.678,3.394,3.223,12.2,6.339,24.421,9.472,36.641.906,3.535.172,4.772-3.371,5.638q-46.943,11.461-93.892,22.9c-4.416,1.076-8.83,2.172-13.281,3.087-1.893.389-2.466,1.247-2.457,3.11.067,13.845.037,27.69.036,41.536,0,.765.008,1.53,0,2.3-.036,2.5-1.22,4.025-3.118,4.039s-3.191-1.524-3.2-3.956Q795.18,642.969,795.2,630.921Zm82.811-166.06-.7-.187a37.639,37.639,0,0,0-2.471,4.2c-4.7,10.94-6.287,22.46-6.187,34.243a35.069,35.069,0,0,0,4.361,16.257c4.4,8.29,10.933,13.318,20.847,13.118,1.76-.035,2.31-.493,1.8-2.325-1.383-4.931-2.593-9.91-3.843-14.877-.7-2.8.155-4.625,2.33-5.109,1.93-.43,3.424.756,4.118,3.372,1.1,4.138,2.136,8.291,3.224,12.432.4,1.521.869,3.023,1.5,5.21,3.025-1.93,5.894-3.326,8.225-5.333,5.9-5.084,7.09-11.958,6.552-19.239-.808-10.936-5.766-17.457-16.283-19.784-2.94-.651-5.862-1.39-8.768-2.175-8.011-2.163-12.495-7.459-13.908-15.442C878.545,467.769,878.275,466.316,878.01,464.861Z" transform="translate(-794.737 -457.165)" fill="#fff"/><path d="M1113.445,736.321c1.079,3.339,2.106,6.53,3.141,9.719q7.858,24.235,15.721,48.469c.938,2.891.945,2.885,3.985,2q15.129-4.415,30.26-8.818a11.2,11.2,0,0,1,2.478-.544,3.012,3.012,0,0,1,3.3,2.327,2.978,2.978,0,0,1-1.52,3.72,14.077,14.077,0,0,1-2.6.948q-35.6,10.386-71.2,20.747a11.352,11.352,0,0,1-2.253.509,3.038,3.038,0,0,1-3.388-2.211,3.007,3.007,0,0,1,1.582-3.89,17.048,17.048,0,0,1,2.835-.994q14.124-4.133,28.255-8.245c.8-.234,1.587-.521,2.7-.889l-19.779-60.991c-3.794.384-7.377.864-10.976,1.091-25.063,1.581-42.6-13.526-50.192-33.522-.967-2.546-.294-4.406,1.746-5.157,1.906-.7,3.565.256,4.526,2.773,3.627,9.493,9.356,17.4,18,23.023,9.106,5.926,19.228,7.324,29.821,5.957,9.4-1.213,18.305-3.869,25.85-9.886,7.6-6.064,11.258-14.176,12.443-23.566a49.951,49.951,0,0,0-.95-17.086,3.227,3.227,0,0,0-1.692-2.114c-6.747-2.169-13.53-2.469-20.17.4a15.1,15.1,0,0,0-9.016,10.393c-2.681,9.729-7.506,18.09-16.551,23.476-6.539,3.893-13.7,5.068-21.2,4.474-2.547-.2-3.989-1.779-3.8-3.758.181-1.944,1.625-3.024,4.232-2.861,7.78.487,14.95-.965,20.982-6.194a29.914,29.914,0,0,0,9.538-15.959c2.941-12.332,13.415-17.443,23.623-18.213a34.921,34.921,0,0,1,16.132,2.512c1.525.633,3.355,2.162,3.738,3.616,3.256,12.383,3.28,24.7-2.3,36.531-5.07,10.74-13.976,17.277-24.974,21.332C1115.05,735.7,1114.346,735.977,1113.445,736.321Z" transform="translate(-928.687 -572.673)" fill="#fff"/><path d="M1221.37,507.7v-8.982c-1.071.152-1.965.229-2.837.408q-29.056,5.989-58.113,11.975c-1.644.336-2.271,1.017-2.226,2.747.229,8.787.245,17.579.507,26.364a16.17,16.17,0,0,1-13.5,16.7,15.988,15.988,0,0,1-18.076-11.624,15.712,15.712,0,0,1,10.009-18.871,15.317,15.317,0,0,1,11.319.142c.907.358,1.809.728,3.072,1.237,0-1.269.008-2.166,0-3.063q-.194-18.584-.389-37.167c-.011-1.146.021-2.292.058-3.438.083-2.5,1.358-3.722,3.893-4.291,22.556-5.06,45.083-10.244,67.629-15.346,3.137-.71,5.329-.208,5.309,4.311-.068,15.595.058,31.19.1,46.785a60.156,60.156,0,0,1-.111,7.542c-.872,7.007-6.031,12.136-13.256,13.478a16.276,16.276,0,0,1-16.634-8.047,15.835,15.835,0,0,1,2.154-18.165,16.115,16.115,0,0,1,18.455-3.878C1219.495,506.845,1220.253,507.2,1221.37,507.7Zm.276-36.1a8.491,8.491,0,0,0-1.365.008q-30.293,6.922-60.585,13.846a2.034,2.034,0,0,0-1.852,2.37c.109,4.966.1,9.935.172,14.9a12.847,12.847,0,0,0,.337,1.965c.64-.091,1.019-.124,1.389-.2q13.836-2.85,27.671-5.708c10.584-2.184,21.164-4.389,31.759-6.523,1.716-.346,2.51-1.034,2.393-2.884-.135-2.127.064-4.274.075-6.412C1221.66,479.231,1221.646,475.5,1221.646,471.6Zm-69.724,69.719a9.327,9.327,0,0,0-18.65-.049,9.326,9.326,0,0,0,18.65.049Zm60.2-11.227a9.133,9.133,0,1,0-9.211-9.228A9.282,9.282,0,0,0,1212.119,530.087Z" transform="translate(-972.184 -460.645)" fill="#fff"/><path d="M850.375,501.34q0,15.713,0,31.426c0,4.373-.805,5.147-5.319,5.152-2.321,0-4.642.006-6.963,0-3.71-.013-4.451-.561-5.218-4.1-.8-3.691-2.788-6.306-6.658-7.082-4.09-.82-7.975-.416-10.667,3.171a13.82,13.82,0,0,0-1.928,4.572c-.7,2.5-1.551,3.329-4.178,3.352q-5.106.046-10.213,0c-2.885-.029-4.024-1.178-4.025-4.081q-.017-32.457,0-64.915c0-2.851,1.139-4.053,4.033-4.12,3.325-.077,6.653-.042,9.98-.009a3.972,3.972,0,0,1,4.188,3.188c1.546,5.24,4.493,7.548,9.355,7.615s8.166-2.387,9.748-7.521a4.218,4.218,0,0,1,4.6-3.3c2.94.028,5.88-.022,8.82.015,3.167.04,4.336,1.2,4.339,4.3q.016,16.17,0,32.339Zm-6.617-16.594h.162c0-3.9.032-7.8-.034-11.7a2.177,2.177,0,0,0-.761-1.67,4.764,4.764,0,0,0-5.766,1.974c-2.883,5.429-7.516,8.2-13.629,8.455-6.359.265-11.729-1.9-14.674-7.686-1.376-2.7-3.063-3.087-5.613-2.913-1.335.091-1.945.39-1.936,1.827q.069,11.818.005,23.636c-.006,1.354.476,1.967,1.894,1.915,1.7-.062,3.406-.048,5.107.007,2.112.069,3.244,1.173,3.251,3.063.007,1.819-1.191,3.018-3.249,3.114a35.023,35.023,0,0,1-4.641-.006c-1.853-.16-2.405.544-2.384,2.346.084,7.266.021,14.533.049,21.8,0,.984-.418,2.479,1.243,2.445,1.834-.037,4.362,1.255,5.29-1.343,3.1-8.692,12.35-11.994,20.935-9.438a14.14,14.14,0,0,1,9.658,9.166c.781,2.141,2.484,1.542,3.859,1.355.5-.069,1.173-1.416,1.182-2.186.087-7.342.032-14.686.059-22.029.006-1.439-.514-2.085-2.046-2.018a57.554,57.554,0,0,1-5.8-.028,3.072,3.072,0,0,1-3.126-3.283,2.938,2.938,0,0,1,3.1-3.042c1.853-.092,3.717-.131,5.569-.043,1.7.081,2.358-.555,2.325-2.249C843.706,492.4,843.758,488.57,843.758,484.746Z" transform="translate(-794.737 -460.886)" fill="#fff"/><path d="M1286.4,710.177a18.337,18.337,0,0,1-3.242-.459c-1.79-.611-2.164-2.17-2.391-3.847q-4.522-33.509-9.1-67.011c-.377-2.766.642-4.3,3.427-4.619q8.409-.961,16.842-1.715c4.075-.368,5.3.783,5.31,4.923q.088,27.994.13,55.988c.008,3.977-.006,7.954.02,11.932.014,2.151-.7,3.66-3.037,4.24-.53.131-1.077,1.126-1.2,1.8-1.015,5.7-1.375,11.584-2.994,17.106-3.47,11.833-10.742,20.7-22.669,25.3a21.75,21.75,0,0,1-3.326.992c-2.239.472-3.911-.448-4.388-2.307-.483-1.885.468-3.467,2.734-4.076a28.17,28.17,0,0,0,13.812-8.437c6.052-6.656,8.562-14.736,9.573-23.4C1286.153,714.489,1286.237,712.376,1286.4,710.177Zm-5.977-58.449a13.08,13.08,0,0,0,.007,1.538c1.59,11.722,3.3,23.429,4.706,35.172.338,2.828,1.947,2.276,3.665,2.35,2.16.093,1.791-1.4,1.79-2.649q-.012-17.416-.055-34.833c0-.811-.1-1.621-.165-2.691Zm9.752-12.277c-3.182.269-6.253.533-9.324.786-1.287.106-2.318.4-1.955,2.057.3,1.377.153,3.018,2.483,2.615,1.9-.328,3.845-.379,5.766-.6C1290.776,643.9,1290.984,643.583,1290.176,639.451Zm-3.714,57.81a46.626,46.626,0,0,0,.691,4.8,1.829,1.829,0,0,0,1.36,1.039c.648.035,1.856-.342,1.895-.654a9.723,9.723,0,0,0-.126-4.441C1290.078,697.464,1288.146,697.553,1286.463,697.261Z" transform="translate(-1043.441 -551.644)" fill="#fff"/><path d="M907.031,667.149a20.609,20.609,0,0,1-21.074,20.517,20.625,20.625,0,1,1,.442-41.243A20.622,20.622,0,0,1,907.031,667.149ZM886.249,681a13.96,13.96,0,1,0-14.235-13.9A14.158,14.158,0,0,0,886.249,681Z" transform="translate(-832.238 -559.195)" fill="#fff"/><path d="M1096.158,507.784c-.7.855-1.276,2.208-2.208,2.522a5.7,5.7,0,0,1-3.613-.489c-.65-.27-1.042-1.282-1.425-2.023-7.868-15.252-15.75-30.5-23.5-45.806a5.574,5.574,0,0,1-.122-4.023c.252-.691,1.936-1.313,2.878-1.2a4.224,4.224,0,0,1,2.608,1.874c1.335,2.139,2.375,4.457,3.544,6.7q10.2,19.565,20.4,39.134C1095.208,505.414,1095.569,506.419,1096.158,507.784Z" transform="translate(-939.189 -456.604)" fill="#fff"/><path d="M1143.131,510.058c.133,2.3-.839,3.537-2.771,3.933-1.719.352-3.325-.854-3.726-2.963-1.429-7.509-2.787-15.031-4.121-22.557-1.612-9.091-3.157-18.194-4.764-27.286-.465-2.631.321-4.356,2.278-4.689,2.22-.378,3.615.836,4.107,3.6,1.03,5.781,2.026,11.568,3.083,17.344q2.865,15.67,5.777,31.332C1143.09,509.293,1143.108,509.832,1143.131,510.058Z" transform="translate(-972.735 -456.428)" fill="#fff"/><path d="M1185.391,463.109a30.142,30.142,0,0,1-.028,3.654,2.953,2.953,0,0,1-3.188,2.925,2.756,2.756,0,0,1-3.077-2.951c-.062-2.436-.052-4.879.079-7.312a3.126,3.126,0,0,1,6.241.027c.078,1.214.015,2.438.015,3.657Z" transform="translate(-1000.28 -456.47)" fill="#fff"/></svg>