<svg xmlns="http://www.w3.org/2000/svg" width="466.776" height="237.572" viewBox="0 0 466.776 237.572"><path d="M1633.576,879.2c.777.024,1.555.068,2.331.068q100.553.005,201.106,0c2.737,0,2.739,0,2.739-2.7,0-3.964-.009-7.928,0-11.892a10.84,10.84,0,0,1,.15-2.108,3.069,3.069,0,0,1,6.11.482q.017,9.662,0,19.324a3.027,3.027,0,0,1-2.849,3.145,13.34,13.34,0,0,1-2.33.066q-102.252,0-204.5.005c-.918,0-1.837.048-2.756.074q-7.521-.047-15.042-.093c-3.268-.022-4.225-1.1-4.2-4.346.052-8.125.02-16.251.028-24.377,0-3.013.438-3.624,3.25-4.684q8-3.017,16-6.037,13.137-4.779,26.272-9.56c5.574-2.037,11.111-4.177,16.717-6.121,1.578-.547,1.847-1.335,1.564-2.8-2.064-10.678-4.078-21.366-6.132-32.047a5.858,5.858,0,0,1-.129-2.727,2.983,2.983,0,0,1,2.968-2.3,3.115,3.115,0,0,1,3.216,2.816c.769,3.735,1.462,7.486,2.167,11.234,1.319,7.01,2.655,14.017,3.91,21.038.269,1.5.762,1.712,2.188,1.181q24.129-8.988,48.3-17.855c3.693-1.362,4.423-1.1,6.691,2.158q10.609,15.24,21.236,30.468c.688.986,1.492,1.962,1.26,3.267a3.142,3.142,0,0,1-2.408,2.676,3.053,3.053,0,0,1-3.464-1.453c-2.138-2.993-4.219-6.026-6.323-9.044-4.734-6.789-9.494-13.561-14.179-20.383-.759-1.1-1.414-1.472-2.75-.977q-50.185,18.574-100.395,37.081c-.265.1-.52.22-.78.332-3.839,1.387-7.673,2.786-11.519,4.154a1.7,1.7,0,0,0-1.374,1.8q.063,9.419,0,18.839c-.01,1.18.472,1.4,1.506,1.381C1625.959,879.223,1629.768,879.224,1633.576,879.2Z" transform="translate(-1614.33 -648.327)" fill="#445664"/><path d="M1634.19,587.463c9.6-2.328,19.212-4.631,28.808-6.989,17.685-4.346,35.357-8.748,53.052-13.054,1.638-.4,1.978-.909,1.542-2.567q-4.013-15.257-7.788-30.576c-.343-1.38-.8-1.635-2.27-1.518-10.635.839-18.86-3.421-24.6-12.322a41.864,41.864,0,0,1-6.48-25.02,154.091,154.091,0,0,1,1.943-16.825c1.366-4.57,2.348-9.265,4.468-13.592a17.967,17.967,0,0,1,3.885-5.74c1.843-1.653,3.966-2.568,6.394-1.482s4.23,2.769,4.375,5.7a29.069,29.069,0,0,0,.412,3.358c.775,4.617,3.106,7.937,7.777,9.33,3.376,1.007,6.807,1.775,10.253,2.479,5.534,1.873,10.372,4.64,13.666,9.746,6.288,9.748,7.215,29.919-6.37,38.908a24.369,24.369,0,0,1-5.8,3.04c-1.507.491-1.884,1.067-1.453,2.71,2.995,11.4,5.857,22.829,8.756,34.251.814,3.209.112,4.432-3.1,5.225q-42.742,10.576-85.489,21.131c-.685.169-1.365.361-2.047.542-3.565.846-7.118,1.749-10.7,2.51-1.465.311-1.859,1-1.853,2.464.059,13.219.037,26.439.029,39.659a11.765,11.765,0,0,1-.159,2.531,3.065,3.065,0,0,1-6.04-.216,13.851,13.851,0,0,1-.084-1.9q-.007-21.526,0-43.052c0-3.429.525-4.081,3.924-4.942Q1626.713,589.352,1634.19,587.463Zm62.765-108.943c-3.956-3.93-5.274-8.976-5.978-14.365-3.319,4.324-4.818,9.255-5.81,14.39a58.684,58.684,0,0,0-1.983,11.245c-.815,8.394-.637,16.67,3.437,24.4s9.978,12.5,19.133,12.375c1.712-.023,1.988-.463,1.537-2.089-1.34-4.827-2.525-9.7-3.719-14.563a3.187,3.187,0,0,1,2.216-4,3.136,3.136,0,0,1,3.829,2.171,19.591,19.591,0,0,1,.56,2.04c1.137,4.443,2.293,8.882,3.39,13.336.254,1.031.563,1.448,1.7.96,5.248-2.243,9.207-5.719,11.1-11.257a27.622,27.622,0,0,0,.52-14.638c-1.371-6.852-5.3-11.409-12.032-13.431-1.89-.568-3.817-1.024-5.745-1.45C1704.744,482.68,1700.495,481.449,1696.955,478.52Z" transform="translate(-1614.895 -456.636)" fill="#445664"/><path d="M2040.206,482.262c-.009,10.685-.128,21.371.012,32.054.1,7.8-3.113,13.519-9.818,15.925-5.841,2.1-11.149.876-15.591-3.547a14.713,14.713,0,0,1,9.873-24.964,15.533,15.533,0,0,1,8.963,2.366c0-2.616-.02-4.862.007-7.107.016-1.345-.752-1-1.55-.829q-15.965,3.349-31.937,6.667c-7.258,1.512-14.51,3.058-21.783,4.5-1.691.336-2.41.906-2.358,2.834.187,6.791.111,13.589.189,20.384.03,2.6.5,5.163-.057,7.8a14.761,14.761,0,0,1-28.878.051,14.141,14.141,0,0,1,5.146-14.594c4.593-3.739,9.832-4.343,15.339-2.022.325.137.641.3.963.443.244.11.491.215,1,.435.137-13.61-.227-27.01-.437-40.41.078-2.449,1.467-3.578,3.767-4.1q31.2-7.083,62.381-14.246c3.006-.686,4.559.562,4.617,3.723C2040.146,472.505,2040.16,477.384,2040.206,482.262Zm-6.584-.017c.05-3.317.062-6.636.168-9.951.041-1.271-.265-1.512-1.561-1.205-8.513,2.019-17.055,3.918-25.58,5.894-7.409,1.717-14.808,3.483-22.211,5.228-2.274.472-4.54.994-6.826,1.4-1.4.248-1.975.808-1.9,2.366q.307,6.772.254,13.557c-.012,1.661.514,1.773,1.944,1.466,9.029-1.934,18.078-3.769,27.115-5.664s18.063-3.841,27.106-5.7c1.17-.241,1.747-.62,1.662-1.894C2033.667,485.912,2033.672,484.077,2033.622,482.245Zm-8.162,42.54a8.351,8.351,0,1,0-8.537-8.2A8.423,8.423,0,0,0,2025.46,524.785Zm-63.666,18.792a8.365,8.365,0,1,0-.066-16.73,8.548,8.548,0,0,0-8.478,8.313A8.427,8.427,0,0,0,1961.794,543.577Z" transform="translate(-1805.635 -460.326)" fill="#445664"/><path d="M1666.139,482.6c-.037,6.084-.093,12.169-.1,18.253-.018,9.06,0,18.12-.008,27.18,0,3.343-.951,4.288-4.273,4.3-2.548.011-5.1.018-7.644,0-2.791-.022-3.6-.692-4.219-3.429-1.421-6.252-6.924-9.006-12.817-6.4a5.423,5.423,0,0,0-3.051,2.772c-1.113,1.134-1.271,2.655-1.562,4.087a3.252,3.252,0,0,1-3.506,2.972c-3.4,0-6.8.034-10.195-.01-2.259-.03-3.342-1.105-3.529-3.36-.047-.563-.029-1.132-.029-1.7q0-28.992,0-57.985c0-4.1.854-4.931,5.01-4.932,2.69,0,5.382.042,8.071-.013a3.684,3.684,0,0,1,4.02,2.991c1.437,4.9,3.854,6.845,8.369,6.875,4.615.031,7.285-1.979,8.742-6.771a3.812,3.812,0,0,1,4.167-3.1c2.831.071,5.664,0,8.5.023s3.917,1.137,3.947,4.027C1666.074,473.119,1666.1,477.859,1666.139,482.6Zm-6.551.008c.386-3.592.073-7.194.159-10.791.01-.4.068-.815-.447-1.062-1.5-.721-4.245.257-5.068,1.816a14.075,14.075,0,0,1-12.6,7.947c-5.911.257-10.858-1.738-13.616-7.132-1.251-2.446-2.707-2.936-5.063-2.719-1.044.1-1.489.281-1.482,1.431q.064,11.03,0,22.061c-.005,1.106.38,1.517,1.481,1.475,1.553-.061,3.112-.059,4.666,0,2.052.082,3.311,1.318,3.284,3.114s-1.288,2.939-3.382,3.011a30.916,30.916,0,0,1-4.028-.014c-1.564-.152-2.069.334-2.045,1.968.1,6.433.021,12.869.046,19.3.014,3.431-.477,2.954,3.083,2.954.883,0,2,.488,2.456-.941a14.653,14.653,0,0,1,7.1-8.335,23.885,23.885,0,0,1,6.183-1.356c6.354-.233,12.541,2.3,15.109,9.562.63,1.783,2.118.907,3.254,1.044,1.1.133.984-.749.984-1.444.005-7.074-.021-14.149.027-21.222.008-1.262-.5-1.567-1.639-1.523-1.7.066-3.4.057-5.092,0-2.021-.071-3.16-1.128-3.212-2.923a2.836,2.836,0,0,1,2.924-3.194c1.828-.144,3.672-.15,5.507-.124,1.069.015,1.525-.326,1.5-1.453C1659.612,490.243,1659.613,486.424,1659.588,482.606Z" transform="translate(-1614.829 -460.673)" fill="#445664"/><path d="M1900.719,477.678q5.949,11.7,11.907,23.387c.738,1.442.947,2.793-.187,4.121a3.054,3.054,0,0,1-3.284.9c-1.3-.314-1.845-1.431-2.4-2.511q-6.031-11.779-12.075-23.551c-.418-.814-.885-1.6-1.329-2.4q-3.946-7.819-7.888-15.64a10.929,10.929,0,0,1-.956-2.11,3.1,3.1,0,0,1,5.587-2.616,18.452,18.452,0,0,1,1.121,2.033Q1895.973,468.481,1900.719,477.678Z" transform="translate(-1769.648 -455.726)" fill="#445664"/><path d="M1957.409,477.7q1.564,9.162,3.13,18.325c.524,3.056,1.088,6.1,1.585,9.164.372,2.284-.554,3.867-2.4,4.254-1.819.381-3.435-.915-3.87-3.3-1.216-6.654-2.354-13.322-3.547-19.981-.508-2.833-1.078-5.656-1.619-8.484q-1.431-8.434-2.862-16.868c-.059-.348-.146-.691-.183-1.041-.226-2.162.745-3.63,2.592-3.939,1.764-.294,3.277.863,3.678,2.974.645,3.39,1.177,6.8,1.8,10.2C1956.249,471.909,1956.843,474.8,1957.409,477.7Z" transform="translate(-1806.033 -455.761)" fill="#445664"/><path d="M2005.117,462.361c0,1.127.081,2.261-.019,3.379a2.9,2.9,0,0,1-2.876,2.842,2.8,2.8,0,0,1-3.2-2.447,24.785,24.785,0,0,1,.208-8.195,3.038,3.038,0,0,1,5.866.21,30.869,30.869,0,0,1,.041,4.21Z" transform="translate(-1835.459 -455.763)" fill="#445664"/><path d="M1950.769,691.068a48.513,48.513,0,0,0-1.018-10.113c-.156-.765-.238-1.562-1.159-1.848-7.54-2.344-14.9-2.566-21.765,2.043a12.885,12.885,0,0,0-5.154,7.774,37.923,37.923,0,0,1-8.99,16.846c-7.08,7.378-15.924,9.884-25.874,9.107-2.26-.177-3.525-1.7-3.351-3.6.172-1.878,1.453-2.856,3.81-2.713,5.616.342,11.007-.306,15.935-3.286,6.513-3.938,10.3-9.987,12-17.1,2.518-10.556,11.2-15.948,20.891-16.9a35.03,35.03,0,0,1,15.632,2.146,5.148,5.148,0,0,1,3.609,3.568c2.63,10.381,2.8,20.727-.97,30.868-4.3,11.541-12.926,18.645-24.246,22.72-1.7.61-1.891,1.127-1.359,2.768q8.493,26.206,16.787,52.477c.519,1.643,1.151,1.815,2.689,1.349,9.667-2.925,19.363-5.754,29.054-8.6,3.038-.891,5.167.588,4.8,3.287-.229,1.663-1.432,2.336-2.857,2.76q-8.429,2.506-16.861,5-24.492,7.217-48.986,14.425c-.542.16-1.077.355-1.628.472-1.969.418-3.623-.45-4.064-2.106a3.075,3.075,0,0,1,2.264-3.97c3.494-1.128,7.031-2.122,10.555-3.158,5.963-1.752,11.918-3.534,17.9-5.208,1.486-.415,1.582-1.027,1.146-2.375q-8.517-26.31-16.876-52.67c-.589-1.868-1.436-1.994-3.037-1.7-8.84,1.636-17.609,1.5-26.115-1.691-13.931-5.233-22.57-15.569-27.672-29.2a3.218,3.218,0,0,1,1.924-4.333c1.666-.564,3.373.34,4.112,2.381A44.937,44.937,0,0,0,1881.256,716c7.562,8.128,16.953,11.959,28.017,11.9a52.974,52.974,0,0,0,22.222-4.724c13.182-6.1,19.081-16.828,19.274-31.045C1950.774,691.775,1950.769,691.422,1950.769,691.068Z" transform="translate(-1758.865 -579.619)" fill="#445664"/><path d="M2114.694,668.382c0,10.406-.02,20.813.015,31.22.008,2.139-.476,3.815-2.9,4.186-1.115.17-.976.99-1.024,1.76a62.931,62.931,0,0,1-2.548,15.646c-3.861,11.858-11,20.6-23.344,24.325a4.735,4.735,0,0,1-2.72.137,3.086,3.086,0,0,1-.274-5.83c1.037-.434,2.173-.629,3.222-1.041,8.745-3.44,13.876-10.131,16.817-18.776,1.585-4.658,2.058-9.507,2.5-14.367.117-1.287-.375-1.572-1.542-1.515-2.17.107-3.239-1.167-3.509-3.177q-2.792-20.8-5.553-41.6c-.919-6.863-1.843-13.725-2.82-20.581-.452-3.173.421-4.616,3.584-4.974,5.268-.6,10.55-1.074,15.836-1.483,2.969-.23,4.14,1.019,4.146,4.214q.031,15.928.007,31.857Zm-6.385-.59h-.052c0-5.592-.043-11.184.029-16.774.019-1.426-.394-1.881-1.808-1.647a52.838,52.838,0,0,1-5.89.709c-1.355.069-1.554.446-1.367,1.788q2.293,16.477,4.375,32.984c.3,2.376,1.971,1.137,3.066,1.366,1.281.268,1.689-.348,1.674-1.651C2108.271,678.975,2108.309,673.383,2108.309,667.792Zm-2.292-28.725c-2.354.214-4.668.433-6.983.63-1.028.087-1.688.557-1.238,1.607.387.9-.494,2.724,1.629,2.494a65.969,65.969,0,0,1,6.928-.706c2.35,0,1.848-1.495,1.883-2.83C2108.287,638.313,2106.845,639.258,2106.017,639.067Zm2.312,56.137c0-2.615,0-2.645-1.693-2.592-.809.026-2.2-.307-1.711,1.2.43,1.337-.941,3.6,1.773,3.9C2108.917,697.963,2108.206,696.314,2108.328,695.2Z" transform="translate(-1882.153 -557.282)" fill="#445664"/><path d="M1704.959,684.552a19.175,19.175,0,1,1,19.258-19.094A19.2,19.2,0,0,1,1704.959,684.552Zm0-6.359a12.815,12.815,0,1,0-12.92-12.721A12.917,12.917,0,0,0,1704.963,678.193Z" transform="translate(-1655.373 -565.287)" fill="#445664"/><text transform="translate(366.776 143.3)" fill="#445664" font-size="26" font-family="NeoSansW1G-Bold, Neo Sans W1G" font-weight="700" letter-spacing="0.2em"><tspan x="-99.047" y="0">EVENTDAILY</tspan></text><text transform="translate(366.776 172.922)" fill="#445664" font-size="26" font-family="NeoSansW1G-Bold, Neo Sans W1G" font-weight="700" letter-spacing="0.2em"><tspan x="-99.047" y="0">EVENTDAILY</tspan></text><text transform="translate(366.776 201.95)" fill="#445664" font-size="26" font-family="NeoSansW1G-Bold, Neo Sans W1G" font-weight="700" letter-spacing="0.2em"><tspan x="-99.047" y="0">EVENTDAILY</tspan></text><text transform="translate(366.776 231.572)" fill="#445664" font-size="26" font-family="NeoSansW1G-Bold, Neo Sans W1G" font-weight="700" letter-spacing="0.2em"><tspan x="-99.047" y="0">EVENTDAILY</tspan></text><text transform="translate(366.776 114.271)" fill="#445664" font-size="26" font-family="NeoSansW1G-Bold, Neo Sans W1G" font-weight="700" letter-spacing="0.2em"><tspan x="-99.047" y="0">EVENTDAILY</tspan></text><text transform="translate(366.776 84.65)" fill="#445664" font-size="26" font-family="NeoSansW1G-Bold, Neo Sans W1G" font-weight="700" letter-spacing="0.2em"><tspan x="-99.047" y="0">EVENTDAILY</tspan></text><text transform="translate(366.776 55.621)" fill="#445664" font-size="26" font-family="NeoSansW1G-Bold, Neo Sans W1G" font-weight="700" letter-spacing="0.2em"><tspan x="-99.047" y="0">EVENTDAILY</tspan></text><text transform="translate(366.776 26)" fill="#445664" font-size="26" font-family="NeoSansW1G-Bold, Neo Sans W1G" font-weight="700" letter-spacing="0.2em"><tspan x="-99.047" y="0">EVENTDAILY</tspan></text></svg>