<svg xmlns="http://www.w3.org/2000/svg" width="256" height="256"><path fill="#ffc76b" d="M22 25h234v231H22z"/><path d="M132.113 21.922l13.716-.034c.547 2.823 1.122 5.641 1.635 8.469 1.205 6.647 2.354 13.3 3.581 19.947.44 2.38 2.071 3.675 3.907 3.294 1.86-.386 2.8-1.966 2.42-4.246-.5-3.055-1.072-6.1-1.6-9.149q-1.586-9.146-3.16-18.294l12.4-.014c.212 13.377.579 26.754.441 40.341-.514-.221-.763-.324-1.01-.435-.325-.146-.644-.3-.973-.442-5.561-2.317-10.849-1.714-15.486 2.018a14.033 14.033 0 00-5.2 14.569c1.328 6.587 7.763 11.683 14.7 11.648a15.218 15.218 0 0014.45-11.7c.561-2.633.087-5.192.057-7.787-.079-6.783 0-13.569-.19-20.349-.053-1.924.673-2.494 2.381-2.829 7.342-1.441 14.663-2.984 21.99-4.494q16.123-3.321 32.242-6.656c.806-.167 1.582-.515 1.565.828-.027 2.241-.007 4.483-.007 7.094a15.816 15.816 0 00-9.049-2.362c-6.308.432-10.706 3.557-13.147 9.287a14.052 14.052 0 003.179 15.635c4.484 4.416 9.844 5.633 15.74 3.541 6.77-2.4 10.014-8.113 9.912-15.9-.141-10.665-.021-21.333-.012-32 5.716 0 11.433.035 17.149-.039 1.412-.018 1.979.415 1.785 1.8a7.658 7.658 0 00-.007 1.059q0 114.041-.005 228.082c0 3.085.359 2.756-2.7 2.756q-115.434.008-230.869 0c-3.1 0-2.716.332-2.728-2.724-.021-5.3-.008-10.6-.009-15.9.927-.026 1.855-.074 2.782-.074q103.229-.005 206.458-.005a13.619 13.619 0 002.353-.066c1.737-.308 2.87-1.28 2.876-3.14q.028-9.646 0-19.292a2.9 2.9 0 00-2.853-3.122 2.94 2.94 0 00-3.315 2.642 10.7 10.7 0 00-.151 2.1c-.012 3.957 0 7.915 0 11.872 0 2.7 0 2.7-2.765 2.7H21.568c-.784 0-1.569-.045-2.354-.068l-.036-26.042c.262-.111.52-.234.787-.331q50.681-18.5 101.354-37.018c1.348-.494 2.011-.127 2.776.976 4.73 6.811 9.535 13.571 14.315 20.349 2.124 3.012 4.225 6.041 6.383 9.028a3.1 3.1 0 003.5 1.45 3.149 3.149 0 002.431-2.671c.234-1.3-.578-2.277-1.272-3.262l-21.439-30.417c-2.29-3.254-3.027-3.514-6.755-2.155q-24.391 8.891-48.766 17.825c-1.44.53-1.937.322-2.209-1.179-1.268-7.009-2.616-14-3.948-21-.711-3.742-1.411-7.486-2.187-11.215a3.133 3.133 0 00-3.247-2.812 3.006 3.006 0 00-3 2.3 5.784 5.784 0 00.13 2.722c2.073 10.662 4.106 21.333 6.19 31.993.286 1.46.015 2.246-1.579 2.793-5.659 1.94-11.25 4.077-16.876 6.11q-13.255 4.79-26.523 9.544l-.05-60.136c.689-.181 1.375-.371 2.067-.541l86.306-21.095c3.238-.792 3.947-2.013 3.125-5.217-2.927-11.4-5.817-22.815-8.84-34.193-.436-1.64-.055-2.215 1.466-2.705a24.7 24.7 0 005.855-3.035c13.715-8.974 12.779-29.11 6.431-38.842-3.325-5.1-8.209-7.86-13.8-9.73l22.862-.113c.449.8.92 1.586 1.342 2.4q6.1 11.751 12.19 23.511c.558 1.078 1.1 2.193 2.421 2.507a3.105 3.105 0 003.316-.9c1.145-1.326.934-2.674.188-4.114q-6.022-11.661-12.009-23.346zm61.414 89.345v1.06c-.2 14.193-6.15 24.9-19.458 30.993a53.99 53.99 0 01-22.438 4.715c-11.17.062-20.65-3.762-28.285-11.876a44.77 44.77 0 01-9.453-15.483c-.746-2.037-2.47-2.939-4.151-2.377a3.2 3.2 0 00-1.942 4.326c5.15 13.6 13.872 23.923 27.937 29.147 8.587 3.19 17.44 3.321 26.365 1.688 1.616-.3 2.471-.171 3.065 1.694q8.39 26.331 17.037 52.581c.441 1.345.344 1.956-1.156 2.371-6.042 1.671-12.054 3.45-18.074 5.2-3.557 1.033-7.129 2.026-10.656 3.152a3.066 3.066 0 00-2.285 3.963c.445 1.653 2.115 2.52 4.1 2.1.557-.117 1.1-.312 1.643-.471l49.454-14.4q8.515-2.481 17.022-4.99c1.439-.423 2.654-1.1 2.885-2.755.375-2.695-1.775-4.171-4.841-3.281-9.785 2.839-19.573 5.663-29.332 8.583-1.552.464-2.19.293-2.714-1.347q-8.378-26.224-16.948-52.388c-.536-1.638-.339-2.154 1.372-2.763 11.428-4.068 20.141-11.16 24.478-22.681 3.811-10.124 3.635-20.452.979-30.815a5.169 5.169 0 00-3.644-3.562 35.732 35.732 0 00-15.781-2.142c-9.78.951-18.549 6.334-21.091 16.872-1.712 7.1-5.54 13.135-12.115 17.066-4.975 2.975-10.418 3.622-16.088 3.281-2.38-.143-3.673.834-3.847 2.708-.176 1.9 1.1 3.422 3.383 3.6 10.045.776 18.974-1.726 26.121-9.092a37.73 37.73 0 009.077-16.817 12.854 12.854 0 015.2-7.761c6.934-4.6 14.362-4.379 21.974-2.039.93.286 1.013 1.081 1.17 1.845a47.913 47.913 0 011.041 10.094zm41.025-.347h-.11q0-15.9-.008-31.8c-.006-3.19-1.188-4.436-4.186-4.207a459.91 459.91 0 00-15.988 1.48c-3.193.357-4.075 1.8-3.618 4.965.986 6.844 1.919 13.694 2.847 20.546q2.813 20.764 5.606 41.53c.272 2.006 1.352 3.278 3.543 3.171 1.179-.057 1.675.228 1.557 1.513-.445 4.852-.922 9.692-2.522 14.343-2.969 8.631-8.149 15.311-16.978 18.745-1.058.411-2.205.606-3.253 1.039a3.07 3.07 0 00.277 5.82 4.831 4.831 0 002.746-.137c12.465-3.722 19.669-12.446 23.567-24.284a62.134 62.134 0 002.573-15.619c.049-.769-.091-1.587 1.034-1.757 2.448-.371 2.936-2.043 2.928-4.179-.036-10.392-.014-20.781-.014-31.17z" fill="#ffc76b"/><path d="M19.269 130.646l-.047-62.535c0-1.2-.036-2.4-.055-3.6a5.415 5.415 0 013.047-2.768c5.885-2.6 11.38.148 12.8 6.392.621 2.734 1.426 3.4 4.213 3.425 2.544.02 5.089.013 7.634 0 3.318-.013 4.264-.957 4.267-4.3.009-9.047-.01-18.095.008-27.142.012-6.076.068-12.151.1-18.227l12.171.032a153.938 153.938 0 00-1.94 16.8 41.808 41.808 0 006.471 24.985c5.736 8.888 13.95 13.143 24.57 12.3 1.47-.116 1.924.138 2.267 1.516q3.8 15.289 7.777 30.533c.435 1.655.1 2.165-1.54 2.563-17.67 4.3-35.317 8.7-52.978 13.036-9.579 2.366-19.179 4.665-28.765 6.99zm30.248-11.547a19.148 19.148 0 10-19.248-19.227 19.252 19.252 0 0019.248 19.227z" fill="#ffc76b"/><path d="M19.432 230.479c.785.024 1.57.068 2.354.068q101.526.005 203.051 0c2.764 0 2.765 0 2.765-2.7 0-3.958-.009-7.917 0-11.876a10.7 10.7 0 01.151-2.105 2.941 2.941 0 013.316-2.642 2.9 2.9 0 012.853 3.123q.017 9.649 0 19.3c-.005 1.86-1.14 2.833-2.877 3.141a13.621 13.621 0 01-2.353.066q-103.241 0-206.482.005c-.927 0-1.855.048-2.782.074L4.24 236.84c-3.3-.022-4.266-1.1-4.245-4.34.052-8.114.02-16.228.029-24.343 0-3.009.443-3.619 3.282-4.677q8.078-3.012 16.154-6.028 13.264-4.772 26.526-9.547c5.627-2.034 11.218-4.171 16.878-6.112 1.594-.546 1.865-1.333 1.579-2.793-2.084-10.664-4.118-21.337-6.191-32a5.788 5.788 0 01-.13-2.723 3.007 3.007 0 013-2.3 3.133 3.133 0 013.247 2.813c.777 3.73 1.476 7.476 2.188 11.218 1.331 7 2.68 14 3.948 21.009.271 1.5.769 1.71 2.209 1.179q24.362-8.975 48.771-17.83c3.729-1.36 4.465-1.1 6.756 2.155q10.712 15.219 21.442 30.426c.694.985 1.507 1.959 1.273 3.263a3.15 3.15 0 01-2.432 2.672 3.1 3.1 0 01-3.5-1.45c-2.159-2.989-4.26-6.018-6.384-9.031-4.78-6.779-9.585-13.542-14.316-20.355-.766-1.1-1.428-1.47-2.777-.976Q70.876 185.618 20.181 204.1c-.267.1-.525.22-.787.331-3.876 1.385-7.748 2.782-11.631 4.148a1.7 1.7 0 00-1.388 1.8q.064 9.406 0 18.813c-.01 1.179.476 1.4 1.521 1.38 3.845-.068 7.691-.068 11.536-.093z" fill="#445664"/><path d="M19.269 130.646c9.59-2.325 19.186-4.624 28.768-6.98 17.661-4.34 35.307-8.735 52.978-13.036 1.635-.4 1.975-.908 1.539-2.563q-4.008-15.235-7.777-30.533c-.342-1.378-.8-1.632-2.266-1.516-10.62.838-18.834-3.416-24.57-12.3a41.808 41.808 0 01-6.471-24.985 153.938 153.938 0 011.94-16.8c1.365-4.564 2.345-9.252 4.462-13.573a17.942 17.942 0 013.879-5.732c1.841-1.651 3.961-2.565 6.385-1.48s4.225 2.765 4.369 5.69a29.1 29.1 0 00.411 3.354c.774 4.61 3.1 7.926 7.766 9.317 3.371 1.005 6.8 1.772 10.238 2.475 5.527 1.871 10.358 4.634 13.646 9.733 6.279 9.735 7.205 29.877-6.361 38.854a24.336 24.336 0 01-5.792 3.036c-1.505.49-1.881 1.065-1.45 2.706 2.99 11.381 5.849 22.8 8.745 34.2.813 3.2.111 4.426-3.091 5.218q-42.683 10.561-85.37 21.1c-.684.169-1.363.36-2.044.541-3.56.845-7.108 1.746-10.686 2.507-1.463.311-1.856 1-1.85 2.461.059 13.2.037 26.4.028 39.6a11.742 11.742 0 01-.159 2.527 3.061 3.061 0 01-6.031-.216 13.869 13.869 0 01-.084-1.9q-.007-21.5 0-42.992c0-3.424.525-4.075 3.918-4.935q7.466-1.892 14.93-3.778zM81.946 21.854c-3.951-3.924-5.267-8.963-5.969-14.345-3.314 4.318-4.811 9.242-5.8 14.37a58.588 58.588 0 00-1.98 11.23c-.814 8.382-.636 16.647 3.432 24.367s9.964 12.478 19.107 12.358c1.71-.023 1.985-.462 1.534-2.086-1.338-4.82-2.521-9.683-3.713-14.543a3.183 3.183 0 012.213-3.992 3.131 3.131 0 013.824 2.168 19.357 19.357 0 01.559 2.037c1.136 4.437 2.29 8.87 3.385 13.317.253 1.03.562 1.446 1.7.958 5.241-2.24 9.194-5.711 11.083-11.242a27.586 27.586 0 00.519-14.618c-1.369-6.843-5.293-11.393-12.015-13.412-1.887-.567-3.812-1.023-5.737-1.448-4.364-.965-8.607-2.195-12.142-5.119zM236.808 21.906c-.009 10.67-.127 21.341.012 32.01.1 7.787-3.108 13.5-9.8 15.9-5.833 2.093-11.134.875-15.57-3.542a14.692 14.692 0 019.86-24.929 15.51 15.51 0 018.951 2.362c0-2.613-.02-4.855.007-7.1.016-1.344-.751-1-1.548-.828q-15.942 3.345-31.892 6.658c-7.248 1.51-14.49 3.054-21.752 4.5-1.689.336-2.407.9-2.355 2.83.186 6.782.11 13.57.188 20.356.03 2.6.5 5.156-.057 7.79a14.741 14.741 0 01-28.838.051 14.122 14.122 0 015.139-14.573c4.586-3.734 9.818-4.337 15.318-2.019.325.137.641.3.962.442.244.11.491.214 1 .435.137-13.591-.226-26.972-.436-40.353.078-2.446 1.465-3.573 3.762-4.094q31.156-7.073 62.294-14.226c3-.685 4.553.561 4.611 3.717.084 4.87.098 9.742.144 14.613zm-6.575-.017c.05-3.313.062-6.627.168-9.938.041-1.27-.265-1.51-1.558-1.2-8.5 2.017-17.032 3.913-25.544 5.886-7.4 1.715-14.787 3.479-22.181 5.221-2.271.471-4.534.992-6.817 1.4-1.4.248-1.972.807-1.9 2.363q.307 6.762.253 13.538c-.012 1.659.514 1.77 1.941 1.464 9.016-1.931 18.054-3.764 27.078-5.656s18.038-3.836 27.069-5.693c1.168-.241 1.745-.619 1.659-1.892-.123-1.831-.118-3.664-.169-5.493zm-8.15 42.481a8.339 8.339 0 10-8.526-8.188 8.411 8.411 0 008.526 8.188zm-63.578 18.766a8.354 8.354 0 10-.066-16.707 8.535 8.535 0 00-8.466 8.3 8.415 8.415 0 008.532 8.407z" fill="#445664"/><path d="M51.238 21.895c-.037 6.076-.093 12.152-.1 18.227-.018 9.047 0 18.095-.008 27.142 0 3.338-.949 4.282-4.267 4.3-2.545.011-5.089.018-7.634 0-2.787-.022-3.592-.691-4.213-3.425-1.419-6.244-6.914-8.994-12.8-6.392a5.415 5.415 0 00-3.047 2.768c-1.111 1.133-1.269 2.651-1.56 4.082a3.247 3.247 0 01-3.5 2.968c-3.394 0-6.787.034-10.181-.01-2.256-.03-3.337-1.1-3.524-3.356-.047-.562-.028-1.13-.029-1.7v-57.9c0-4.093.852-4.924 5-4.926 2.687 0 5.374.042 8.059-.013a3.679 3.679 0 014.014 2.987c1.436 4.894 3.849 6.835 8.358 6.866 4.608.031 7.274-1.976 8.73-6.762a3.807 3.807 0 014.161-3.1c2.826.071 5.656 0 8.484.023s3.912 1.136 3.942 4.021c.047 4.733.078 9.467.115 14.2zm-6.542.008c.385-3.587.073-7.185.159-10.776.01-.4.068-.814-.447-1.061-1.5-.72-4.24.257-5.061 1.813a14.054 14.054 0 01-12.584 7.936c-5.9.257-10.843-1.735-13.6-7.122-1.249-2.443-2.7-2.932-5.056-2.715-1.042.1-1.487.28-1.48 1.429q.064 11.015 0 22.031c0 1.1.38 1.515 1.479 1.472a60.318 60.318 0 014.659 0c2.05.082 3.307 1.316 3.28 3.11s-1.286 2.935-3.377 3.006a30.893 30.893 0 01-4.022-.014c-1.562-.152-2.066.333-2.042 1.965.1 6.424.021 12.851.046 19.276.014 3.426-.476 2.95 3.079 2.95.882 0 2 .487 2.452-.94a14.632 14.632 0 017.086-8.323 23.855 23.855 0 016.175-1.354c6.346-.233 12.524 2.294 15.088 9.549.629 1.781 2.115.906 3.249 1.042 1.1.132.982-.747.983-1.442 0-7.064-.021-14.129.026-21.193.009-1.26-.5-1.564-1.637-1.52a70.097 70.097 0 01-5.085 0c-2.018-.071-3.156-1.126-3.208-2.919a2.832 2.832 0 012.92-3.189c1.825-.144 3.667-.15 5.5-.124 1.067.015 1.522-.325 1.5-1.451-.058-3.81-.056-7.623-.082-11.436zM132.203 21.922q5.941 11.679 11.891 23.354c.737 1.44.946 2.789-.187 4.115a3.049 3.049 0 01-3.28.9c-1.3-.314-1.842-1.429-2.395-2.508q-6.022-11.762-12.058-23.518c-.417-.813-.884-1.6-1.327-2.4q-3.94-7.808-7.877-15.618a10.908 10.908 0 01-.954-2.107 3.1 3.1 0 015.579-2.613 18.466 18.466 0 011.12 2.03q4.745 9.18 9.488 18.365zM152.69 21.91l3.126 18.3c.523 3.051 1.086 6.1 1.583 9.152.371 2.281-.554 3.862-2.393 4.248-1.816.381-3.43-.914-3.865-3.3-1.214-6.645-2.35-13.3-3.542-19.953-.507-2.829-1.076-5.648-1.617-8.472l-2.858-16.844c-.059-.347-.146-.69-.183-1.039-.226-2.159.744-3.625 2.589-3.933 1.761-.294 3.272.862 3.673 2.97.644 3.386 1.175 6.793 1.8 10.182.524 2.904 1.117 5.794 1.687 8.689zM171.117 6.589c0 1.125.081 2.258-.019 3.375a2.891 2.891 0 01-2.873 2.838 2.794 2.794 0 01-3.2-2.443 24.756 24.756 0 01.207-8.184 3.033 3.033 0 015.858.21 30.8 30.8 0 01.041 4.2zM194.201 111.222a48.445 48.445 0 00-1.016-10.1c-.156-.764-.237-1.559-1.158-1.845-7.529-2.341-14.876-2.562-21.735 2.04a12.865 12.865 0 00-5.147 7.763 37.874 37.874 0 01-8.978 16.822c-7.07 7.368-15.9 9.87-25.838 9.094-2.257-.177-3.52-1.7-3.346-3.6.171-1.875 1.451-2.852 3.8-2.709 5.609.341 10.992-.306 15.913-3.282 6.5-3.932 10.29-9.973 11.984-17.071 2.514-10.541 11.187-15.926 20.862-16.877a34.982 34.982 0 0115.61 2.143 5.141 5.141 0 013.6 3.563c2.627 10.367 2.8 20.7-.969 30.825-4.29 11.525-12.908 18.619-24.213 22.688-1.693.609-1.888 1.125-1.357 2.764q8.481 26.17 16.764 52.4c.518 1.641 1.149 1.812 2.685 1.348 9.653-2.921 19.336-5.746 29.014-8.586 3.034-.89 5.16.587 4.789 3.283-.229 1.66-1.431 2.333-2.854 2.756q-8.417 2.5-16.838 4.992-24.458 7.208-48.918 14.405c-.541.159-1.075.354-1.626.471-1.967.418-3.618-.449-4.058-2.1a3.071 3.071 0 012.26-3.964c3.489-1.127 7.022-2.119 10.541-3.153 5.955-1.75 11.9-3.529 17.878-5.2 1.484-.415 1.58-1.026 1.144-2.371q-8.505-26.273-16.853-52.6c-.588-1.865-1.434-1.991-3.032-1.695-8.828 1.634-17.585 1.5-26.079-1.689-13.912-5.226-22.539-15.547-27.633-29.156a3.213 3.213 0 011.921-4.327c1.663-.563 3.368.34 4.106 2.377a44.874 44.874 0 009.351 15.487c7.552 8.116 16.929 11.942 27.978 11.88a52.9 52.9 0 0022.197-4.716c13.164-6.093 19.054-16.8 19.247-31 .008-.353.004-.707.004-1.06z" fill="#445664"/><path d="M234.781 110.908c0 10.392-.02 20.784.015 31.176.007 2.136-.475 3.809-2.9 4.18-1.114.17-.975.988-1.023 1.758a62.815 62.815 0 01-2.545 15.624c-3.856 11.842-10.981 20.568-23.311 24.291a4.729 4.729 0 01-2.716.137 3.082 3.082 0 01-.274-5.822c1.036-.434 2.17-.628 3.217-1.04 8.733-3.435 13.857-10.117 16.794-18.75 1.582-4.652 2.055-9.493 2.495-14.347.117-1.285-.374-1.57-1.54-1.513-2.167.107-3.235-1.165-3.5-3.172q-2.788-20.77-5.545-41.543a2492.059 2492.059 0 00-2.816-20.552c-.452-3.168.421-4.61 3.579-4.967a447.658 447.658 0 0115.814-1.481c2.965-.229 4.134 1.018 4.14 4.208q.031 15.906.008 31.813zm-6.377-.589h-.052c0-5.584-.043-11.168.029-16.751.019-1.424-.393-1.878-1.805-1.645a52.772 52.772 0 01-5.882.708c-1.353.069-1.551.445-1.365 1.786q2.29 16.454 4.369 32.938c.3 2.373 1.968 1.136 3.061 1.364 1.28.268 1.688-.348 1.672-1.649-.063-5.583-.026-11.168-.026-16.751zm-2.289-28.685c-2.35.213-4.661.432-6.974.629-1.026.087-1.686.556-1.236 1.6.386.9-.494 2.72 1.627 2.491a65.93 65.93 0 016.918-.7c2.347 0 1.845-1.493 1.881-2.826.053-1.952-1.387-1.003-2.215-1.194zm2.309 56.059c0-2.611 0-2.641-1.691-2.589-.808.025-2.193-.306-1.708 1.2.429 1.335-.94 3.59 1.771 3.893 2.216.25 1.506-1.396 1.629-2.504zM49.518 119.074a19.148 19.148 0 1119.231-19.068 19.177 19.177 0 01-19.231 19.068zm0-6.351a12.8 12.8 0 10-12.9-12.7 12.9 12.9 0 0012.904 12.7z" fill="#445664"/><path d="M82.781 21.854c3.535 2.925 7.778 4.154 12.142 5.119 1.925.425 3.85.881 5.737 1.448 6.722 2.019 10.646 6.569 12.015 13.412a27.586 27.586 0 01-.519 14.618c-1.889 5.531-5.842 9-11.083 11.242-1.14.488-1.449.071-1.7-.958-1.1-4.448-2.25-8.88-3.385-13.317a19.446 19.446 0 00-.559-2.037 3.131 3.131 0 00-3.824-2.168 3.183 3.183 0 00-2.213 3.992c1.192 4.859 2.376 9.723 3.713 14.542.451 1.624.176 2.064-1.534 2.086-9.142.12-15.043-4.647-19.107-12.358s-4.246-15.984-3.432-24.367a58.569 58.569 0 011.98-11.23zM230.232 21.889c.05 1.829.045 3.662.167 5.486.085 1.273-.491 1.651-1.659 1.892-9.031 1.858-18.044 3.8-27.069 5.693s-18.062 3.724-27.078 5.656c-1.427.306-1.953.195-1.941-1.464q.05-6.769-.253-13.538c-.071-1.556.5-2.115 1.9-2.363 2.283-.4 4.546-.925 6.815-1.4zM222.083 64.356a8.338 8.338 0 118.343-8.391 8.39 8.39 0 01-8.343 8.391zM157.542 83.116a8.415 8.415 0 01-8.531-8.406 8.436 8.436 0 0116.869.037 8.4 8.4 0 01-8.338 8.369zM44.696 21.902c.026 3.813.024 7.626.093 11.438.02 1.125-.435 1.466-1.5 1.451-1.833-.026-3.674-.02-5.5.124a2.832 2.832 0 00-2.92 3.189c.053 1.793 1.19 2.848 3.208 2.919a67.89 67.89 0 005.085 0c1.136-.044 1.645.26 1.637 1.52-.047 7.064-.021 14.129-.026 21.193 0 .694.118 1.574-.983 1.442-1.134-.136-2.62.739-3.25-1.042-2.564-7.255-8.742-9.782-15.088-9.549a23.863 23.863 0 00-6.174 1.354c-.017-10.817 0-21.634-.088-32.45-.013-1.639.814-1.612 1.965-1.609 7.846.026 15.694.018 23.541.02zM228.405 110.327c0 5.583-.037 11.168.028 16.751.015 1.3-.392 1.917-1.672 1.649-1.094-.229-2.76 1.009-3.061-1.364q-2.089-16.481-4.369-32.938c-.186-1.34.012-1.716 1.365-1.785a52.8 52.8 0 005.882-.708c1.412-.233 1.823.221 1.8 1.645-.072 5.583-.029 11.167-.029 16.751zM226.116 81.648c.828.191 2.267-.753 2.216 1.194-.035 1.333.467 2.822-1.88 2.826a65.885 65.885 0 00-6.918.7c-2.121.229-1.241-1.592-1.627-2.491-.45-1.049.209-1.517 1.235-1.6 2.313-.196 4.624-.415 6.974-.629zM228.423 137.694c-.125 1.107.586 2.753-1.631 2.505-2.711-.3-1.342-2.557-1.771-3.893-.485-1.509.9-1.177 1.708-1.2 1.694-.055 1.694-.025 1.694 2.588zM49.522 112.722a12.8 12.8 0 1112.869-12.785 12.83 12.83 0 01-12.869 12.785z" fill="#ffc76b"/></svg>